<svg xmlns="http://www.w3.org/2000/svg" width="1520" height="1150" viewBox="0 0 1520 1150">

<!-- Background -->
<rect width="100%" height="100%" fill="#0B0E14"/>

<!-- ============================================================ -->
<!-- TITLE                                                         -->
<!-- ============================================================ -->
<text x="24" y="38" fill="#C3CDDC" font-family="Arial,Helvetica,sans-serif" font-size="22" font-weight="700">Cool Grey — 15-Stop Palette &amp; Complete Migration Map</text>
<text x="24" y="60" fill="#626D82" font-family="Arial,Helvetica,sans-serif" font-size="12">13-shade scale + 2 pure anchors · hue ? 220–224° · Consolidates ~98 scattered grey values across agent-canvas · Branch: cool-grey</text>

<!-- ============================================================ -->
<!-- PALETTE STRIP                                                 -->
<!-- ============================================================ -->
<text x="24" y="88" fill="#7E8A9E" font-family="Arial,Helvetica,sans-serif" font-size="10" font-weight="700" letter-spacing="2">PALETTE — 13-SHADE SCALE + 2 PURE ANCHORS</text>
<line x1="24" y1="94" x2="1496" y2="94" stroke="#21252F" stroke-width="1"/>

<!-- white (anchor) -->
<rect x="16" y="104" width="88" height="84" rx="6" fill="#FFFFFF" stroke="#DCE3EE" stroke-width="1.5" stroke-dasharray="5,3"/>
<text x="60" y="200" fill="#626D82" font-family="Arial,Helvetica,sans-serif" font-size="12" font-weight="700" text-anchor="middle">white</text>
<text x="60" y="214" fill="#4B5468" font-family="Menlo,Consolas,monospace" font-size="10" text-anchor="middle">#FFFFFF</text>
<text x="60" y="226" fill="#383F50" font-family="Arial,Helvetica,sans-serif" font-size="9" text-anchor="middle" font-style="italic">anchor</text>

<!-- 50 -->
<rect x="116" y="104" width="88" height="84" rx="6" fill="#F7F9FC"/>
<text x="160" y="200" fill="#626D82" font-family="Arial,Helvetica,sans-serif" font-size="12" font-weight="700" text-anchor="middle">50</text>
<text x="160" y="214" fill="#4B5468" font-family="Menlo,Consolas,monospace" font-size="10" text-anchor="middle">#F7F9FC</text>
<text x="160" y="226" fill="#383F50" font-family="Arial,Helvetica,sans-serif" font-size="9" text-anchor="middle" font-style="italic">surface-hi</text>

<!-- 100 -->
<rect x="216" y="104" width="88" height="84" rx="6" fill="#EEF2F7"/>
<text x="260" y="200" fill="#626D82" font-family="Arial,Helvetica,sans-serif" font-size="12" font-weight="700" text-anchor="middle">100</text>
<text x="260" y="214" fill="#4B5468" font-family="Menlo,Consolas,monospace" font-size="10" text-anchor="middle">#EEF2F7</text>
<text x="260" y="226" fill="#383F50" font-family="Arial,Helvetica,sans-serif" font-size="9" text-anchor="middle" font-style="italic">surface</text>

<!-- 200 -->
<rect x="316" y="104" width="88" height="84" rx="6" fill="#DCE3EE"/>
<text x="360" y="200" fill="#626D82" font-family="Arial,Helvetica,sans-serif" font-size="12" font-weight="700" text-anchor="middle">200</text>
<text x="360" y="214" fill="#4B5468" font-family="Menlo,Consolas,monospace" font-size="10" text-anchor="middle">#DCE3EE</text>
<text x="360" y="226" fill="#383F50" font-family="Arial,Helvetica,sans-serif" font-size="9" text-anchor="middle" font-style="italic">subtle</text>

<!-- 300 -->
<rect x="416" y="104" width="88" height="84" rx="6" fill="#C3CDDC"/>
<text x="460" y="200" fill="#626D82" font-family="Arial,Helvetica,sans-serif" font-size="12" font-weight="700" text-anchor="middle">300</text>
<text x="460" y="214" fill="#4B5468" font-family="Menlo,Consolas,monospace" font-size="10" text-anchor="middle">#C3CDDC</text>
<text x="460" y="226" fill="#383F50" font-family="Arial,Helvetica,sans-serif" font-size="9" text-anchor="middle" font-style="italic">secondary</text>

<!-- 400 -->
<rect x="516" y="104" width="88" height="84" rx="6" fill="#A3B0C4"/>
<text x="560" y="200" fill="#626D82" font-family="Arial,Helvetica,sans-serif" font-size="12" font-weight="700" text-anchor="middle">400</text>
<text x="560" y="214" fill="#4B5468" font-family="Menlo,Consolas,monospace" font-size="10" text-anchor="middle">#A3B0C4</text>
<text x="560" y="226" fill="#383F50" font-family="Arial,Helvetica,sans-serif" font-size="9" text-anchor="middle" font-style="italic">muted</text>

<!-- 500 -->
<rect x="616" y="104" width="88" height="84" rx="6" fill="#7E8A9E"/>
<text x="660" y="200" fill="#626D82" font-family="Arial,Helvetica,sans-serif" font-size="12" font-weight="700" text-anchor="middle">500</text>
<text x="660" y="214" fill="#4B5468" font-family="Menlo,Consolas,monospace" font-size="10" text-anchor="middle">#7E8A9E</text>
<text x="660" y="226" fill="#383F50" font-family="Arial,Helvetica,sans-serif" font-size="9" text-anchor="middle" font-style="italic">mid</text>

<!-- 600 -->
<rect x="716" y="104" width="88" height="84" rx="6" fill="#626D82"/>
<text x="760" y="200" fill="#626D82" font-family="Arial,Helvetica,sans-serif" font-size="12" font-weight="700" text-anchor="middle">600</text>
<text x="760" y="214" fill="#4B5468" font-family="Menlo,Consolas,monospace" font-size="10" text-anchor="middle">#626D82</text>
<text x="760" y="226" fill="#383F50" font-family="Arial,Helvetica,sans-serif" font-size="9" text-anchor="middle" font-style="italic">strong</text>

<!-- 700 -->
<rect x="816" y="104" width="88" height="84" rx="6" fill="#4B5468"/>
<text x="860" y="200" fill="#626D82" font-family="Arial,Helvetica,sans-serif" font-size="12" font-weight="700" text-anchor="middle">700</text>
<text x="860" y="214" fill="#4B5468" font-family="Menlo,Consolas,monospace" font-size="10" text-anchor="middle">#4B5468</text>
<text x="860" y="226" fill="#383F50" font-family="Arial,Helvetica,sans-serif" font-size="9" text-anchor="middle" font-style="italic">dark-hi</text>

<!-- 800 -->
<rect x="916" y="104" width="88" height="84" rx="6" fill="#383F50" stroke="#4B5468" stroke-width="1"/>
<text x="960" y="200" fill="#626D82" font-family="Arial,Helvetica,sans-serif" font-size="12" font-weight="700" text-anchor="middle">800</text>
<text x="960" y="214" fill="#4B5468" font-family="Menlo,Consolas,monospace" font-size="10" text-anchor="middle">#383F50</text>
<text x="960" y="226" fill="#383F50" font-family="Arial,Helvetica,sans-serif" font-size="9" text-anchor="middle" font-style="italic">dark</text>

<!-- 900 -->
<rect x="1016" y="104" width="88" height="84" rx="6" fill="#2C313F" stroke="#4B5468" stroke-width="1"/>
<text x="1060" y="200" fill="#626D82" font-family="Arial,Helvetica,sans-serif" font-size="12" font-weight="700" text-anchor="middle">900</text>
<text x="1060" y="214" fill="#4B5468" font-family="Menlo,Consolas,monospace" font-size="10" text-anchor="middle">#2C313F</text>
<text x="1060" y="226" fill="#383F50" font-family="Arial,Helvetica,sans-serif" font-size="9" text-anchor="middle" font-style="italic">surface-dk</text>

<!-- 925 -->
<rect x="1116" y="104" width="88" height="84" rx="6" fill="#21252F" stroke="#4B5468" stroke-width="1"/>
<text x="1160" y="200" fill="#626D82" font-family="Arial,Helvetica,sans-serif" font-size="12" font-weight="700" text-anchor="middle">925</text>
<text x="1160" y="214" fill="#4B5468" font-family="Menlo,Consolas,monospace" font-size="10" text-anchor="middle">#21252F</text>
<text x="1160" y="226" fill="#383F50" font-family="Arial,Helvetica,sans-serif" font-size="9" text-anchor="middle" font-style="italic">depth-hi</text>

<!-- 950 -->
<rect x="1216" y="104" width="88" height="84" rx="6" fill="#111319" stroke="#4B5468" stroke-width="1"/>
<text x="1260" y="200" fill="#626D82" font-family="Arial,Helvetica,sans-serif" font-size="12" font-weight="700" text-anchor="middle">950</text>
<text x="1260" y="214" fill="#4B5468" font-family="Menlo,Consolas,monospace" font-size="10" text-anchor="middle">#111319</text>
<text x="1260" y="226" fill="#383F50" font-family="Arial,Helvetica,sans-serif" font-size="9" text-anchor="middle" font-style="italic">depth</text>

<!-- 975 -->
<rect x="1316" y="104" width="88" height="84" rx="6" fill="#05070A" stroke="#4B5468" stroke-width="1"/>
<text x="1360" y="200" fill="#626D82" font-family="Arial,Helvetica,sans-serif" font-size="12" font-weight="700" text-anchor="middle">975</text>
<text x="1360" y="214" fill="#4B5468" font-family="Menlo,Consolas,monospace" font-size="10" text-anchor="middle">#05070A</text>
<text x="1360" y="226" fill="#383F50" font-family="Arial,Helvetica,sans-serif" font-size="9" text-anchor="middle" font-style="italic">deepest</text>

<!-- black (anchor) -->
<rect x="1416" y="104" width="88" height="84" rx="6" fill="#000000" stroke="#2C313F" stroke-width="1.5" stroke-dasharray="5,3"/>
<text x="1460" y="200" fill="#626D82" font-family="Arial,Helvetica,sans-serif" font-size="12" font-weight="700" text-anchor="middle">black</text>
<text x="1460" y="214" fill="#4B5468" font-family="Menlo,Consolas,monospace" font-size="10" text-anchor="middle">#000000</text>
<text x="1460" y="226" fill="#383F50" font-family="Arial,Helvetica,sans-serif" font-size="9" text-anchor="middle" font-style="italic">anchor</text>

<!-- ============================================================ -->
<!-- MIGRATION MAP HEADER                                          -->
<!-- ============================================================ -->
<text x="24" y="252" fill="#7E8A9E" font-family="Arial,Helvetica,sans-serif" font-size="10" font-weight="700" letter-spacing="2">MIGRATION MAP — ALL CURRENT GREYS MAPPED TO NEAREST NEW TOKEN</text>
<line x1="24" y1="258" x2="1496" y2="258" stroke="#21252F" stroke-width="1"/>
<text x="24" y="276" fill="#383F50" font-family="Arial,Helvetica,sans-serif" font-size="10" font-weight="700">NEW TOKEN</text>
<text x="220" y="276" fill="#383F50" font-family="Arial,Helvetica,sans-serif" font-size="10" font-weight="700">CURRENT VALUES (proximity-mapped by RGB + lightness)</text>
<line x1="24" y1="282" x2="1496" y2="282" stroke="#21252F" stroke-width="1"/>
<line x1="212" y1="282" x2="212" y2="1086" stroke="#21252F" stroke-width="1"/>

<!-- ============================================================ -->
<!-- ROW: cool-grey-50  (#F7F9FC)  y=288  h=54                    -->
<!-- ============================================================ -->
<rect x="24" y="296" width="44" height="24" rx="4" fill="#F7F9FC"/>
<text x="80" y="308" fill="#C3CDDC" font-family="Menlo,Consolas,monospace" font-size="11" font-weight="700">cool-grey-50</text>
<text x="80" y="321" fill="#626D82" font-family="Menlo,Consolas,monospace" font-size="10">#F7F9FC</text>
<text x="80" y="334" fill="#383F50" font-family="Arial,Helvetica,sans-serif" font-size="9" font-style="italic">surface-hi</text>

<rect x="220" y="298" width="32" height="16" rx="3" fill="#F9FBFE" stroke="#4B5468" stroke-width="1"/>
<text x="256" y="310" fill="#A3B0C4" font-family="Menlo,Consolas,monospace" font-size="10">#F9FBFE</text>
<rect x="350" y="298" width="32" height="16" rx="3" fill="#F4F4F5" stroke="#4B5468" stroke-width="1"/>
<text x="386" y="310" fill="#A3B0C4" font-family="Menlo,Consolas,monospace" font-size="10">#F4F4F5</text>
<rect x="480" y="298" width="32" height="16" rx="3" fill="#FAFAFA" stroke="#4B5468" stroke-width="1"/>
<text x="516" y="310" fill="#A3B0C4" font-family="Menlo,Consolas,monospace" font-size="10">#FAFAFA</text>
<rect x="610" y="298" width="32" height="16" rx="3" fill="#FCFCFC" stroke="#4B5468" stroke-width="1"/>
<text x="646" y="310" fill="#A3B0C4" font-family="Menlo,Consolas,monospace" font-size="10">#FCFCFC</text>
<rect x="740" y="298" width="32" height="16" rx="3" fill="#F5F5F5" stroke="#4B5468" stroke-width="1"/>
<text x="776" y="310" fill="#A3B0C4" font-family="Menlo,Consolas,monospace" font-size="10">#F5F5F5</text>
<rect x="870" y="298" width="32" height="16" rx="3" fill="#F3F4F6" stroke="#4B5468" stroke-width="1"/>
<text x="906" y="310" fill="#A3B0C4" font-family="Menlo,Consolas,monospace" font-size="10">#F3F4F6</text>
<line x1="24" y1="342" x2="1496" y2="342" stroke="#21252F" stroke-width="1"/>

<!-- ============================================================ -->
<!-- ROW: cool-grey-100  (#EEF2F7)  y=342  h=54  [alt]            -->
<!-- ============================================================ -->
<rect x="24" y="342" width="1472" height="54" fill="#0D1017"/>
<line x1="212" y1="342" x2="212" y2="396" stroke="#21252F" stroke-width="1"/>
<rect x="24" y="350" width="44" height="24" rx="4" fill="#EEF2F7"/>
<text x="80" y="362" fill="#C3CDDC" font-family="Menlo,Consolas,monospace" font-size="11" font-weight="700">cool-grey-100</text>
<text x="80" y="375" fill="#626D82" font-family="Menlo,Consolas,monospace" font-size="10">#EEF2F7</text>
<text x="80" y="388" fill="#383F50" font-family="Arial,Helvetica,sans-serif" font-size="9" font-style="italic">surface</text>

<rect x="220" y="352" width="32" height="16" rx="3" fill="#ECEDEE" stroke="#4B5468" stroke-width="1"/>
<text x="256" y="364" fill="#A3B0C4" font-family="Menlo,Consolas,monospace" font-size="10">#ECEDEE</text>
<rect x="350" y="352" width="32" height="16" rx="3" fill="#E6EDF3" stroke="#4B5468" stroke-width="1"/>
<text x="386" y="364" fill="#A3B0C4" font-family="Menlo,Consolas,monospace" font-size="10">#E6EDF3</text>
<rect x="480" y="352" width="32" height="16" rx="3" fill="#E5E5E5" stroke="#4B5468" stroke-width="1"/>
<text x="516" y="364" fill="#A3B0C4" font-family="Menlo,Consolas,monospace" font-size="10">#E5E5E5</text>
<rect x="610" y="352" width="32" height="16" rx="3" fill="#EEEEEE" stroke="#4B5468" stroke-width="1"/>
<text x="646" y="364" fill="#A3B0C4" font-family="Menlo,Consolas,monospace" font-size="10">#EEEEEE</text>
<rect x="740" y="352" width="32" height="16" rx="3" fill="#E8E8E8" stroke="#4B5468" stroke-width="1"/>
<text x="776" y="364" fill="#A3B0C4" font-family="Menlo,Consolas,monospace" font-size="10">#E8E8E8</text>
<line x1="24" y1="396" x2="1496" y2="396" stroke="#21252F" stroke-width="1"/>

<!-- ============================================================ -->
<!-- ROW: cool-grey-200  (#DCE3EE)  y=396  h=78  (2 rows)         -->
<!-- ============================================================ -->
<rect x="24" y="404" width="44" height="24" rx="4" fill="#DCE3EE"/>
<text x="80" y="416" fill="#C3CDDC" font-family="Menlo,Consolas,monospace" font-size="11" font-weight="700">cool-grey-200</text>
<text x="80" y="429" fill="#626D82" font-family="Menlo,Consolas,monospace" font-size="10">#DCE3EE</text>
<text x="80" y="442" fill="#383F50" font-family="Arial,Helvetica,sans-serif" font-size="9" font-style="italic">subtle / light border</text>
<!-- old colors row 0 -->
<rect x="220" y="406" width="32" height="16" rx="3" fill="#E4E7EB" stroke="#4B5468" stroke-width="1"/>
<text x="256" y="418" fill="#A3B0C4" font-family="Menlo,Consolas,monospace" font-size="10">#E4E7EB</text>
<rect x="350" y="406" width="32" height="16" rx="3" fill="#E4E4E4" stroke="#4B5468" stroke-width="1"/>
<text x="386" y="418" fill="#A3B0C4" font-family="Menlo,Consolas,monospace" font-size="10">#E4E4E4</text>
<rect x="480" y="406" width="32" height="16" rx="3" fill="#E5E7EB" stroke="#4B5468" stroke-width="1"/>
<text x="516" y="418" fill="#A3B0C4" font-family="Menlo,Consolas,monospace" font-size="10">#E5E7EB</text>
<rect x="610" y="406" width="32" height="16" rx="3" fill="#DEDFE0" stroke="#4B5468" stroke-width="1"/>
<text x="646" y="418" fill="#A3B0C4" font-family="Menlo,Consolas,monospace" font-size="10">#DEDFE0</text>
<rect x="740" y="406" width="32" height="16" rx="3" fill="#D9D9D9" stroke="#4B5468" stroke-width="1"/>
<text x="776" y="418" fill="#A3B0C4" font-family="Menlo,Consolas,monospace" font-size="10">#D9D9D9</text>
<rect x="870" y="406" width="32" height="16" rx="3" fill="#D6D6D6" stroke="#4B5468" stroke-width="1"/>
<text x="906" y="418" fill="#A3B0C4" font-family="Menlo,Consolas,monospace" font-size="10">#D6D6D6</text>
<rect x="1000" y="406" width="32" height="16" rx="3" fill="#D5D9E5" stroke="#4B5468" stroke-width="1"/>
<text x="1036" y="418" fill="#A3B0C4" font-family="Menlo,Consolas,monospace" font-size="10">#D5D9E5</text>
<rect x="1130" y="406" width="32" height="16" rx="3" fill="#D0D9FA" stroke="#4B5468" stroke-width="1"/>
<text x="1166" y="418" fill="#A3B0C4" font-family="Menlo,Consolas,monospace" font-size="10">#D0D9FA</text>
<rect x="1260" y="406" width="32" height="16" rx="3" fill="#D4D4D4" stroke="#4B5468" stroke-width="1"/>
<text x="1296" y="418" fill="#A3B0C4" font-family="Menlo,Consolas,monospace" font-size="10">#D4D4D4</text>
<!-- old colors row 1 -->
<rect x="220" y="438" width="32" height="16" rx="3" fill="#D1D5DB" stroke="#4B5468" stroke-width="1"/>
<text x="256" y="450" fill="#A3B0C4" font-family="Menlo,Consolas,monospace" font-size="10">#D1D5DB</text>
<line x1="24" y1="474" x2="1496" y2="474" stroke="#21252F" stroke-width="1"/>

<!-- ============================================================ -->
<!-- ROW: cool-grey-300  (#C3CDDC)  y=474  h=54  [alt]            -->
<!-- ============================================================ -->
<rect x="24" y="474" width="1472" height="54" fill="#0D1017"/>
<line x1="212" y1="474" x2="212" y2="528" stroke="#21252F" stroke-width="1"/>
<rect x="24" y="482" width="44" height="24" rx="4" fill="#C3CDDC"/>
<text x="80" y="494" fill="#C3CDDC" font-family="Menlo,Consolas,monospace" font-size="11" font-weight="700">cool-grey-300</text>
<text x="80" y="507" fill="#626D82" font-family="Menlo,Consolas,monospace" font-size="10">#C3CDDC</text>
<text x="80" y="520" fill="#383F50" font-family="Arial,Helvetica,sans-serif" font-size="9" font-style="italic">secondary text</text>

<rect x="220" y="484" width="32" height="16" rx="3" fill="#C4CBDA" stroke="#4B5468" stroke-width="1"/>
<text x="256" y="496" fill="#A3B0C4" font-family="Menlo,Consolas,monospace" font-size="10">#C4CBDA</text>
<rect x="350" y="484" width="32" height="16" rx="3" fill="#C9C7C7" stroke="#4B5468" stroke-width="1"/>
<text x="386" y="496" fill="#A3B0C4" font-family="Menlo,Consolas,monospace" font-size="10">#C9C7C7</text>
<rect x="480" y="484" width="32" height="16" rx="3" fill="#B7BDC2" stroke="#4B5468" stroke-width="1"/>
<text x="516" y="496" fill="#A3B0C4" font-family="Menlo,Consolas,monospace" font-size="10">#B7BDC2</text>
<rect x="610" y="484" width="32" height="16" rx="3" fill="#B1B9D3" stroke="#4B5468" stroke-width="1"/>
<text x="646" y="496" fill="#A3B0C4" font-family="Menlo,Consolas,monospace" font-size="10">#B1B9D3</text>
<rect x="740" y="484" width="32" height="16" rx="3" fill="#AFB8C1" stroke="#4B5468" stroke-width="1"/>
<text x="776" y="496" fill="#A3B0C4" font-family="Menlo,Consolas,monospace" font-size="10">#AFB8C1</text>
<line x1="24" y1="528" x2="1496" y2="528" stroke="#21252F" stroke-width="1"/>

<!-- ============================================================ -->
<!-- ROW: cool-grey-400  (#A3B0C4)  y=528  h=54                   -->
<!-- ============================================================ -->
<rect x="24" y="536" width="44" height="24" rx="4" fill="#A3B0C4"/>
<text x="80" y="548" fill="#C3CDDC" font-family="Menlo,Consolas,monospace" font-size="11" font-weight="700">cool-grey-400</text>
<text x="80" y="561" fill="#626D82" font-family="Menlo,Consolas,monospace" font-size="10">#A3B0C4</text>
<text x="80" y="574" fill="#383F50" font-family="Arial,Helvetica,sans-serif" font-size="9" font-style="italic">muted text &amp; icons</text>

<rect x="220" y="538" width="32" height="16" rx="3" fill="#9CA3AF" stroke="#4B5468" stroke-width="1"/>
<text x="256" y="550" fill="#A3B0C4" font-family="Menlo,Consolas,monospace" font-size="10">#9CA3AF</text>
<rect x="350" y="538" width="32" height="16" rx="3" fill="#959CB2" stroke="#4B5468" stroke-width="1"/>
<text x="386" y="550" fill="#A3B0C4" font-family="Menlo,Consolas,monospace" font-size="10">#959CB2</text>
<rect x="480" y="538" width="32" height="16" rx="3" fill="#9299AA" stroke="#4B5468" stroke-width="1"/>
<text x="516" y="550" fill="#A3B0C4" font-family="Menlo,Consolas,monospace" font-size="10">#9299AA</text>
<rect x="610" y="538" width="32" height="16" rx="3" fill="#9099AC" stroke="#4B5468" stroke-width="1"/>
<text x="646" y="550" fill="#A3B0C4" font-family="Menlo,Consolas,monospace" font-size="10">#9099AC</text>
<rect x="740" y="538" width="32" height="16" rx="3" fill="#A3A3A3" stroke="#4B5468" stroke-width="1"/>
<text x="776" y="550" fill="#A3B0C4" font-family="Menlo,Consolas,monospace" font-size="10">#A3A3A3</text>
<rect x="870" y="538" width="32" height="16" rx="3" fill="#A7A7A7" stroke="#4B5468" stroke-width="1"/>
<text x="906" y="550" fill="#A3B0C4" font-family="Menlo,Consolas,monospace" font-size="10">#A7A7A7</text>
<rect x="1000" y="538" width="32" height="16" rx="3" fill="#A1A1A1" stroke="#4B5468" stroke-width="1"/>
<text x="1036" y="550" fill="#A3B0C4" font-family="Menlo,Consolas,monospace" font-size="10">#A1A1A1</text>
<line x1="24" y1="582" x2="1496" y2="582" stroke="#21252F" stroke-width="1"/>

<!-- ============================================================ -->
<!-- ROW: cool-grey-500  (#7E8A9E)  y=582  h=54  [alt]            -->
<!-- ============================================================ -->
<rect x="24" y="582" width="1472" height="54" fill="#0D1017"/>
<line x1="212" y1="582" x2="212" y2="636" stroke="#21252F" stroke-width="1"/>
<rect x="24" y="590" width="44" height="24" rx="4" fill="#7E8A9E"/>
<text x="80" y="602" fill="#C3CDDC" font-family="Menlo,Consolas,monospace" font-size="11" font-weight="700">cool-grey-500</text>
<text x="80" y="615" fill="#626D82" font-family="Menlo,Consolas,monospace" font-size="10">#7E8A9E</text>
<text x="80" y="628" fill="#383F50" font-family="Arial,Helvetica,sans-serif" font-size="9" font-style="italic">mid / inactive icons</text>

<rect x="220" y="592" width="32" height="16" rx="3" fill="#8D95A9" stroke="#4B5468" stroke-width="1"/>
<text x="256" y="604" fill="#A3B0C4" font-family="Menlo,Consolas,monospace" font-size="10">#8D95A9</text>
<rect x="350" y="592" width="32" height="16" rx="3" fill="#868E96" stroke="#4B5468" stroke-width="1"/>
<text x="386" y="604" fill="#A3B0C4" font-family="Menlo,Consolas,monospace" font-size="10">#868E96</text>
<rect x="480" y="592" width="32" height="16" rx="3" fill="#7E848C" stroke="#4B5468" stroke-width="1"/>
<text x="516" y="604" fill="#A3B0C4" font-family="Menlo,Consolas,monospace" font-size="10">#7E848C</text>
<rect x="610" y="592" width="32" height="16" rx="3" fill="#8C8C8C" stroke="#4B5468" stroke-width="1"/>
<text x="646" y="604" fill="#A3B0C4" font-family="Menlo,Consolas,monospace" font-size="10">#8C8C8C</text>
<rect x="740" y="592" width="32" height="16" rx="3" fill="#969896" stroke="#4B5468" stroke-width="1"/>
<text x="776" y="604" fill="#A3B0C4" font-family="Menlo,Consolas,monospace" font-size="10">#969896</text>
<line x1="24" y1="636" x2="1496" y2="636" stroke="#21252F" stroke-width="1"/>

<!-- ============================================================ -->
<!-- ROW: cool-grey-600  (#626D82)  y=636  h=54                   -->
<!-- ============================================================ -->
<rect x="24" y="644" width="44" height="24" rx="4" fill="#626D82"/>
<text x="80" y="656" fill="#C3CDDC" font-family="Menlo,Consolas,monospace" font-size="11" font-weight="700">cool-grey-600</text>
<text x="80" y="669" fill="#626D82" font-family="Menlo,Consolas,monospace" font-size="10">#626D82</text>
<text x="80" y="682" fill="#383F50" font-family="Arial,Helvetica,sans-serif" font-size="9" font-style="italic">strong / default border</text>

<rect x="220" y="646" width="32" height="16" rx="3" fill="#727987" stroke="#4B5468" stroke-width="1"/>
<text x="256" y="658" fill="#A3B0C4" font-family="Menlo,Consolas,monospace" font-size="10">#727987</text>
<rect x="350" y="646" width="32" height="16" rx="3" fill="#717888" stroke="#4B5468" stroke-width="1"/>
<text x="386" y="658" fill="#A3B0C4" font-family="Menlo,Consolas,monospace" font-size="10">#717888</text>
<rect x="480" y="646" width="32" height="16" rx="3" fill="#6B7280" stroke="#4B5468" stroke-width="1"/>
<text x="516" y="658" fill="#A3B0C4" font-family="Menlo,Consolas,monospace" font-size="10">#6B7280</text>
<rect x="610" y="646" width="32" height="16" rx="3" fill="#6C6C6C" stroke="#4B5468" stroke-width="1"/>
<text x="646" y="658" fill="#A3B0C4" font-family="Menlo,Consolas,monospace" font-size="10">#6C6C6C</text>
<rect x="740" y="646" width="32" height="16" rx="3" fill="#737373" stroke="#4B5468" stroke-width="1"/>
<text x="776" y="658" fill="#A3B0C4" font-family="Menlo,Consolas,monospace" font-size="10">#737373</text>
<line x1="24" y1="690" x2="1496" y2="690" stroke="#21252F" stroke-width="1"/>

<!-- ============================================================ -->
<!-- ROW: cool-grey-700  (#4B5468)  y=690  h=54  [alt]            -->
<!-- ============================================================ -->
<rect x="24" y="690" width="1472" height="54" fill="#0D1017"/>
<line x1="212" y1="690" x2="212" y2="744" stroke="#21252F" stroke-width="1"/>
<rect x="24" y="698" width="44" height="24" rx="4" fill="#4B5468"/>
<text x="80" y="710" fill="#C3CDDC" font-family="Menlo,Consolas,monospace" font-size="11" font-weight="700">cool-grey-700</text>
<text x="80" y="723" fill="#626D82" font-family="Menlo,Consolas,monospace" font-size="10">#4B5468</text>
<text x="80" y="736" fill="#383F50" font-family="Arial,Helvetica,sans-serif" font-size="9" font-style="italic">dark-hi / structural</text>

<rect x="220" y="700" width="32" height="16" rx="3" fill="#525B6F" stroke="#4B5468" stroke-width="1"/>
<text x="256" y="712" fill="#A3B0C4" font-family="Menlo,Consolas,monospace" font-size="10">#525B6F</text>
<rect x="350" y="700" width="32" height="16" rx="3" fill="#4B505F" stroke="#4B5468" stroke-width="1"/>
<text x="386" y="712" fill="#A3B0C4" font-family="Menlo,Consolas,monospace" font-size="10">#4B505F</text>
<rect x="480" y="700" width="32" height="16" rx="3" fill="#4B4E57" stroke="#4B5468" stroke-width="1"/>
<text x="516" y="712" fill="#A3B0C4" font-family="Menlo,Consolas,monospace" font-size="10">#4B4E57</text>
<rect x="610" y="700" width="32" height="16" rx="3" fill="#474A54" stroke="#4B5468" stroke-width="1"/>
<text x="646" y="712" fill="#A3B0C4" font-family="Menlo,Consolas,monospace" font-size="10">#474A54</text>
<rect x="740" y="700" width="32" height="16" rx="3" fill="#4B5563" stroke="#4B5468" stroke-width="1"/>
<text x="776" y="712" fill="#A3B0C4" font-family="Menlo,Consolas,monospace" font-size="10">#4B5563</text>
<rect x="870" y="700" width="32" height="16" rx="3" fill="#5C5D62" stroke="#4B5468" stroke-width="1"/>
<text x="906" y="712" fill="#A3B0C4" font-family="Menlo,Consolas,monospace" font-size="10">#5C5D62</text>
<rect x="1000" y="700" width="32" height="16" rx="3" fill="#525252" stroke="#4B5468" stroke-width="1"/>
<text x="1036" y="712" fill="#A3B0C4" font-family="Menlo,Consolas,monospace" font-size="10">#525252</text>
<rect x="1130" y="700" width="32" height="16" rx="3" fill="#4E4E4E" stroke="#4B5468" stroke-width="1"/>
<text x="1166" y="712" fill="#A3B0C4" font-family="Menlo,Consolas,monospace" font-size="10">#4E4E4E</text>
<line x1="24" y1="744" x2="1496" y2="744" stroke="#21252F" stroke-width="1"/>

<!-- ============================================================ -->
<!-- ROW: cool-grey-800  (#383F50)  y=744  h=78  (2 rows)         -->
<!-- ============================================================ -->
<rect x="24" y="752" width="44" height="24" rx="4" fill="#383F50" stroke="#4B5468" stroke-width="1"/>
<text x="80" y="764" fill="#C3CDDC" font-family="Menlo,Consolas,monospace" font-size="11" font-weight="700">cool-grey-800</text>
<text x="80" y="777" fill="#626D82" font-family="Menlo,Consolas,monospace" font-size="10">#383F50</text>
<text x="80" y="790" fill="#383F50" font-family="Arial,Helvetica,sans-serif" font-size="9" font-style="italic">dark / panel bg</text>
<!-- old colors row 0 -->
<rect x="220" y="754" width="32" height="16" rx="3" fill="#3F4452" stroke="#4B5468" stroke-width="1"/>
<text x="256" y="766" fill="#A3B0C4" font-family="Menlo,Consolas,monospace" font-size="10">#3F4452</text>
<rect x="350" y="754" width="32" height="16" rx="3" fill="#3A3D44" stroke="#4B5468" stroke-width="1"/>
<text x="386" y="766" fill="#A3B0C4" font-family="Menlo,Consolas,monospace" font-size="10">#3A3D44</text>
<rect x="480" y="754" width="32" height="16" rx="3" fill="#3A3D46" stroke="#4B5468" stroke-width="1"/>
<text x="516" y="766" fill="#A3B0C4" font-family="Menlo,Consolas,monospace" font-size="10">#3A3D46</text>
<rect x="610" y="754" width="32" height="16" rx="3" fill="#3C3C4A" stroke="#4B5468" stroke-width="1"/>
<text x="646" y="766" fill="#A3B0C4" font-family="Menlo,Consolas,monospace" font-size="10">#3C3C4A</text>
<rect x="740" y="754" width="32" height="16" rx="3" fill="#3C3C49" stroke="#4B5468" stroke-width="1"/>
<text x="776" y="766" fill="#A3B0C4" font-family="Menlo,Consolas,monospace" font-size="10">#3C3C49</text>
<rect x="870" y="754" width="32" height="16" rx="3" fill="#3A3C45" stroke="#4B5468" stroke-width="1"/>
<text x="906" y="766" fill="#A3B0C4" font-family="Menlo,Consolas,monospace" font-size="10">#3A3C45</text>
<rect x="1000" y="754" width="32" height="16" rx="3" fill="#383B45" stroke="#4B5468" stroke-width="1"/>
<text x="1036" y="766" fill="#A3B0C4" font-family="Menlo,Consolas,monospace" font-size="10">#383B45</text>
<rect x="1130" y="754" width="32" height="16" rx="3" fill="#363840" stroke="#4B5468" stroke-width="1"/>
<text x="1166" y="766" fill="#A3B0C4" font-family="Menlo,Consolas,monospace" font-size="10">#363840</text>
<rect x="1260" y="754" width="32" height="16" rx="3" fill="#374151" stroke="#4B5468" stroke-width="1"/>
<text x="1296" y="766" fill="#A3B0C4" font-family="Menlo,Consolas,monospace" font-size="10">#374151</text>
<!-- old colors row 1 -->
<rect x="220" y="786" width="32" height="16" rx="3" fill="#393939" stroke="#4B5468" stroke-width="1"/>
<text x="256" y="798" fill="#A3B0C4" font-family="Menlo,Consolas,monospace" font-size="10">#393939</text>
<rect x="350" y="786" width="32" height="16" rx="3" fill="#363636" stroke="#4B5468" stroke-width="1"/>
<text x="386" y="798" fill="#A3B0C4" font-family="Menlo,Consolas,monospace" font-size="10">#363636</text>
<rect x="480" y="786" width="32" height="16" rx="3" fill="#404040" stroke="#4B5468" stroke-width="1"/>
<text x="516" y="798" fill="#A3B0C4" font-family="Menlo,Consolas,monospace" font-size="10">#404040</text>
<rect x="610" y="786" width="32" height="16" rx="3" fill="#454545" stroke="#4B5468" stroke-width="1"/>
<text x="646" y="798" fill="#A3B0C4" font-family="Menlo,Consolas,monospace" font-size="10">#454545</text>
<rect x="740" y="786" width="32" height="16" rx="3" fill="#444444" stroke="#4B5468" stroke-width="1"/>
<text x="776" y="798" fill="#A3B0C4" font-family="Menlo,Consolas,monospace" font-size="10">#444444</text>
<line x1="24" y1="822" x2="1496" y2="822" stroke="#21252F" stroke-width="1"/>

<!-- ============================================================ -->
<!-- ROW: cool-grey-900  (#2C313F)  y=822  h=78  (2 rows)  [alt]  -->
<!-- ============================================================ -->
<rect x="24" y="822" width="1472" height="78" fill="#0D1017"/>
<line x1="212" y1="822" x2="212" y2="900" stroke="#21252F" stroke-width="1"/>
<rect x="24" y="830" width="44" height="24" rx="4" fill="#2C313F" stroke="#4B5468" stroke-width="1"/>
<text x="80" y="842" fill="#C3CDDC" font-family="Menlo,Consolas,monospace" font-size="11" font-weight="700">cool-grey-900</text>
<text x="80" y="855" fill="#626D82" font-family="Menlo,Consolas,monospace" font-size="10">#2C313F</text>
<text x="80" y="868" fill="#383F50" font-family="Arial,Helvetica,sans-serif" font-size="9" font-style="italic">surface-dk</text>
<!-- old colors row 0 -->
<rect x="220" y="832" width="32" height="16" rx="3" fill="#30363D" stroke="#4B5468" stroke-width="1"/>
<text x="256" y="844" fill="#A3B0C4" font-family="Menlo,Consolas,monospace" font-size="10">#30363D</text>
<rect x="350" y="832" width="32" height="16" rx="3" fill="#31343D" stroke="#4B5468" stroke-width="1"/>
<text x="386" y="844" fill="#A3B0C4" font-family="Menlo,Consolas,monospace" font-size="10">#31343D</text>
<rect x="480" y="832" width="32" height="16" rx="3" fill="#2F3137" stroke="#4B5468" stroke-width="1"/>
<text x="516" y="844" fill="#A3B0C4" font-family="Menlo,Consolas,monospace" font-size="10">#2F3137</text>
<rect x="610" y="832" width="32" height="16" rx="3" fill="#2D3039" stroke="#4B5468" stroke-width="1"/>
<text x="646" y="844" fill="#A3B0C4" font-family="Menlo,Consolas,monospace" font-size="10">#2D3039</text>
<rect x="740" y="832" width="32" height="16" rx="3" fill="#2A3038" stroke="#4B5468" stroke-width="1"/>
<text x="776" y="844" fill="#A3B0C4" font-family="Menlo,Consolas,monospace" font-size="10">#2A3038</text>
<rect x="870" y="832" width="32" height="16" rx="3" fill="#2D2F36" stroke="#4B5468" stroke-width="1"/>
<text x="906" y="844" fill="#A3B0C4" font-family="Menlo,Consolas,monospace" font-size="10">#2D2F36</text>
<rect x="1000" y="832" width="32" height="16" rx="3" fill="#2A2F38" stroke="#4B5468" stroke-width="1"/>
<text x="1036" y="844" fill="#A3B0C4" font-family="Menlo,Consolas,monospace" font-size="10">#2A2F38</text>
<rect x="1130" y="832" width="32" height="16" rx="3" fill="#2A2D37" stroke="#4B5468" stroke-width="1"/>
<text x="1166" y="844" fill="#A3B0C4" font-family="Menlo,Consolas,monospace" font-size="10">#2A2D37</text>
<rect x="1260" y="832" width="32" height="16" rx="3" fill="#2D2D2D" stroke="#4B5468" stroke-width="1"/>
<text x="1296" y="844" fill="#A3B0C4" font-family="Menlo,Consolas,monospace" font-size="10">#2D2D2D</text>
<!-- old colors row 1 -->
<rect x="220" y="864" width="32" height="16" rx="3" fill="#2A2A2A" stroke="#4B5468" stroke-width="1"/>
<text x="256" y="876" fill="#A3B0C4" font-family="Menlo,Consolas,monospace" font-size="10">#2A2A2A</text>
<rect x="350" y="864" width="32" height="16" rx="3" fill="#292929" stroke="#4B5468" stroke-width="1"/>
<text x="386" y="876" fill="#A3B0C4" font-family="Menlo,Consolas,monospace" font-size="10">#292929</text>
<line x1="24" y1="900" x2="1496" y2="900" stroke="#21252F" stroke-width="1"/>

<!-- ============================================================ -->
<!-- ROW: cool-grey-925  (#21252F)  y=900  h=78  (2 rows)         -->
<!-- ============================================================ -->
<rect x="24" y="908" width="44" height="24" rx="4" fill="#21252F" stroke="#4B5468" stroke-width="1"/>
<text x="80" y="920" fill="#C3CDDC" font-family="Menlo,Consolas,monospace" font-size="11" font-weight="700">cool-grey-925</text>
<text x="80" y="933" fill="#626D82" font-family="Menlo,Consolas,monospace" font-size="10">#21252F</text>
<text x="80" y="946" fill="#383F50" font-family="Arial,Helvetica,sans-serif" font-size="9" font-style="italic">depth-hi / popup bg</text>
<!-- old colors row 0 -->
<rect x="220" y="910" width="32" height="16" rx="3" fill="#24272E" stroke="#4B5468" stroke-width="1"/>
<text x="256" y="922" fill="#A3B0C4" font-family="Menlo,Consolas,monospace" font-size="10">#24272E</text>
<rect x="350" y="910" width="32" height="16" rx="3" fill="#24292F" stroke="#4B5468" stroke-width="1"/>
<text x="386" y="922" fill="#A3B0C4" font-family="Menlo,Consolas,monospace" font-size="10">#24292F</text>
<rect x="480" y="910" width="32" height="16" rx="3" fill="#25272D" stroke="#4B5468" stroke-width="1"/>
<text x="516" y="922" fill="#A3B0C4" font-family="Menlo,Consolas,monospace" font-size="10">#25272D</text>
<rect x="610" y="910" width="32" height="16" rx="3" fill="#26282D" stroke="#4B5468" stroke-width="1"/>
<text x="646" y="922" fill="#A3B0C4" font-family="Menlo,Consolas,monospace" font-size="10">#26282D</text>
<rect x="740" y="910" width="32" height="16" rx="3" fill="#1F2228" stroke="#4B5468" stroke-width="1"/>
<text x="776" y="922" fill="#A3B0C4" font-family="Menlo,Consolas,monospace" font-size="10">#1F2228</text>
<rect x="870" y="910" width="32" height="16" rx="3" fill="#1F2125" stroke="#4B5468" stroke-width="1"/>
<text x="906" y="922" fill="#A3B0C4" font-family="Menlo,Consolas,monospace" font-size="10">#1F2125</text>
<rect x="1000" y="910" width="32" height="16" rx="3" fill="#1E2028" stroke="#4B5468" stroke-width="1"/>
<text x="1036" y="922" fill="#A3B0C4" font-family="Menlo,Consolas,monospace" font-size="10">#1E2028</text>
<rect x="1130" y="910" width="32" height="16" rx="3" fill="#1F2937" stroke="#4B5468" stroke-width="1"/>
<text x="1166" y="922" fill="#A3B0C4" font-family="Menlo,Consolas,monospace" font-size="10">#1F2937</text>
<rect x="1260" y="910" width="32" height="16" rx="3" fill="#262626" stroke="#4B5468" stroke-width="1"/>
<text x="1296" y="922" fill="#A3B0C4" font-family="Menlo,Consolas,monospace" font-size="10">#262626</text>
<!-- old colors row 1 -->
<rect x="220" y="942" width="32" height="16" rx="3" fill="#242424" stroke="#4B5468" stroke-width="1"/>
<text x="256" y="954" fill="#A3B0C4" font-family="Menlo,Consolas,monospace" font-size="10">#242424</text>
<rect x="350" y="942" width="32" height="16" rx="3" fill="#1F1F1F" stroke="#4B5468" stroke-width="1"/>
<text x="386" y="954" fill="#A3B0C4" font-family="Menlo,Consolas,monospace" font-size="10">#1F1F1F</text>
<rect x="480" y="942" width="32" height="16" rx="3" fill="#1E1E1E" stroke="#4B5468" stroke-width="1"/>
<text x="516" y="954" fill="#A3B0C4" font-family="Menlo,Consolas,monospace" font-size="10">#1E1E1E</text>
<line x1="24" y1="978" x2="1496" y2="978" stroke="#21252F" stroke-width="1"/>

<!-- ============================================================ -->
<!-- ROW: cool-grey-950  (#111319)  y=978  h=54  [alt]            -->
<!-- ============================================================ -->
<rect x="24" y="978" width="1472" height="54" fill="#0D1017"/>
<line x1="212" y1="978" x2="212" y2="1032" stroke="#21252F" stroke-width="1"/>
<rect x="24" y="986" width="44" height="24" rx="4" fill="#111319" stroke="#4B5468" stroke-width="1"/>
<text x="80" y="998" fill="#C3CDDC" font-family="Menlo,Consolas,monospace" font-size="11" font-weight="700">cool-grey-950</text>
<text x="80" y="1011" fill="#626D82" font-family="Menlo,Consolas,monospace" font-size="10">#111319</text>
<text x="80" y="1024" fill="#383F50" font-family="Arial,Helvetica,sans-serif" font-size="9" font-style="italic">depth / shell bg</text>

<rect x="220" y="988" width="32" height="16" rx="3" fill="#1A1A1A" stroke="#4B5468" stroke-width="1"/>
<text x="256" y="1000" fill="#A3B0C4" font-family="Menlo,Consolas,monospace" font-size="10">#1A1A1A</text>
<rect x="350" y="988" width="32" height="16" rx="3" fill="#171717" stroke="#4B5468" stroke-width="1"/>
<text x="386" y="1000" fill="#A3B0C4" font-family="Menlo,Consolas,monospace" font-size="10">#171717</text>
<rect x="480" y="988" width="32" height="16" rx="3" fill="#0D0F11" stroke="#4B5468" stroke-width="1"/>
<text x="516" y="1000" fill="#A3B0C4" font-family="Menlo,Consolas,monospace" font-size="10">#0D0F11</text>
<rect x="610" y="988" width="32" height="16" rx="3" fill="#0B0E14" stroke="#4B5468" stroke-width="1"/>
<text x="646" y="1000" fill="#A3B0C4" font-family="Menlo,Consolas,monospace" font-size="10">#0B0E14</text>
<rect x="740" y="988" width="32" height="16" rx="3" fill="#0F172A" stroke="#4B5468" stroke-width="1"/>
<text x="776" y="1000" fill="#A3B0C4" font-family="Menlo,Consolas,monospace" font-size="10">#0F172A</text>
<rect x="870" y="988" width="32" height="16" rx="3" fill="#111827" stroke="#4B5468" stroke-width="1"/>
<text x="906" y="1000" fill="#A3B0C4" font-family="Menlo,Consolas,monospace" font-size="10">#111827</text>
<rect x="1000" y="988" width="32" height="16" rx="3" fill="#0C0E10" stroke="#4B5468" stroke-width="1"/>
<text x="1036" y="1000" fill="#A3B0C4" font-family="Menlo,Consolas,monospace" font-size="10">#0C0E10</text>
<rect x="1130" y="988" width="32" height="16" rx="3" fill="#0F0F0F" stroke="#4B5468" stroke-width="1"/>
<text x="1166" y="1000" fill="#A3B0C4" font-family="Menlo,Consolas,monospace" font-size="10">#0F0F0F</text>
<line x1="24" y1="1032" x2="1496" y2="1032" stroke="#21252F" stroke-width="1"/>

<!-- ============================================================ -->
<!-- ROW: cool-grey-975  (#05070A)  y=1032  h=54                  -->
<!-- ============================================================ -->
<rect x="24" y="1040" width="44" height="24" rx="4" fill="#05070A" stroke="#4B5468" stroke-width="1"/>
<text x="80" y="1052" fill="#C3CDDC" font-family="Menlo,Consolas,monospace" font-size="11" font-weight="700">cool-grey-975</text>
<text x="80" y="1065" fill="#626D82" font-family="Menlo,Consolas,monospace" font-size="10">#05070A</text>
<text x="80" y="1078" fill="#383F50" font-family="Arial,Helvetica,sans-serif" font-size="9" font-style="italic">near-black</text>

<rect x="220" y="1042" width="32" height="16" rx="3" fill="#0A0A0A" stroke="#4B5468" stroke-width="1"/>
<text x="256" y="1054" fill="#A3B0C4" font-family="Menlo,Consolas,monospace" font-size="10">#0A0A0A</text>
<rect x="350" y="1042" width="32" height="16" rx="3" fill="#050505" stroke="#4B5468" stroke-width="1"/>
<text x="386" y="1054" fill="#A3B0C4" font-family="Menlo,Consolas,monospace" font-size="10">#050505</text>
<line x1="24" y1="1086" x2="1496" y2="1086" stroke="#21252F" stroke-width="1"/>

<!-- ============================================================ -->
<!-- FOOTER NOTES                                                  -->
<!-- ============================================================ -->
<text x="24" y="1104" fill="#383F50" font-family="Arial,Helvetica,sans-serif" font-size="10">Anchors: #FFFFFF (white) and #000000 (black) are kept as-is — they are semantic primitives, not part of the 13-shade scale.</text>
<text x="24" y="1118" fill="#383F50" font-family="Arial,Helvetica,sans-serif" font-size="10">Alpha variants (#AFB8C133, #24242499, #1F1F1F99, #0A0A0A80, etc.) use the corresponding solid shade + Tailwind opacity modifier: e.g. bg-cool-grey-300/20, bg-cool-grey-925/60.</text>
<text x="24" y="1132" fill="#383F50" font-family="Arial,Helvetica,sans-serif" font-size="10">Proximity notes: #737373 ? 600 (not 500) · #444–#454 ? 800 (not 700) · #C9C7C7 (warm grey) ? 300 approx · #969896 (muted grey) ? 500 approx. Flag warm/muted for designer review.</text>

</svg>
